<svg xmlns="http://www.w3.org/2000/svg" xmlns:xlink="http://www.w3.org/1999/xlink" width="156" zoomAndPan="magnify" viewBox="0 0 116.88 116.999995" height="156" preserveAspectRatio="xMidYMid meet" version="1.2"><defs><clipPath id="079e94b25a"><path d="M 0 0.0585938 L 116.761719 0.0585938 L 116.761719 116.9375 L 0 116.9375 Z M 0 0.0585938 "/></clipPath><clipPath id="364d2edddc"><path d="M 58.441406 0.0585938 C 26.164062 0.0585938 0 26.222656 0 58.5 C 0 90.777344 26.164062 116.941406 58.441406 116.941406 C 90.714844 116.941406 116.878906 90.777344 116.878906 58.5 C 116.878906 26.222656 90.714844 0.0585938 58.441406 0.0585938 Z M 58.441406 0.0585938 "/></clipPath><clipPath id="81751199f2"><path d="M 0 0.0585938 L 116.761719 0.0585938 L 116.761719 114.691406 L 0 114.691406 Z M 0 0.0585938 "/></clipPath></defs><g id="24dcff2d00"><g clip-rule="nonzero" clip-path="url(#079e94b25a)"><g clip-rule="nonzero" clip-path="url(#364d2edddc)"><path style=" stroke:none;fill-rule:nonzero;fill:#ca8238;fill-opacity:1;" d="M 0 0.0585938 L 116.878906 0.0585938 L 116.878906 116.941406 L 0 116.941406 Z M 0 0.0585938 "/></g></g><g clip-rule="nonzero" clip-path="url(#81751199f2)"><path style=" stroke:none;fill-rule:nonzero;fill:#3d5919;fill-opacity:1;" d="M 58.425781 0.0742188 C 26.15625 0.0742188 0 26.230469 0 58.5 C 0 75.699219 7.441406 91.152344 19.253906 101.851562 C 16.5 95.824219 14.601562 87.617188 14.8125 76.5 C 14.878906 72.507812 18.175781 69.304688 22.164062 69.304688 L 80.605469 69.304688 C 84.667969 69.304688 87.960938 72.597656 87.960938 76.65625 C 87.960938 76.65625 99.269531 74.964844 101.535156 84.203125 C 103.796875 93.4375 98.328125 105.300781 82.121094 105.6875 C 82.121094 105.6875 79.386719 110.878906 74.472656 114.675781 C 98.9375 107.707031 116.832031 85.195312 116.832031 58.5 C 116.832031 26.230469 90.679688 0.0742188 58.425781 0.0742188 Z M 48.230469 66.933594 C 47.898438 67.195312 47.570312 67.402344 47.289062 67.578125 C 47.011719 67.769531 46.769531 67.890625 46.574219 67.996094 C 46.175781 68.207031 45.964844 68.308594 45.964844 68.308594 C 45.964844 68.308594 46.089844 68.101562 46.347656 67.734375 C 46.628906 67.371094 46.925781 66.8125 47.308594 66.132812 C 47.691406 65.433594 48.074219 64.5625 48.441406 63.570312 C 48.789062 62.578125 49.085938 61.425781 49.257812 60.191406 C 49.433594 58.953125 49.484375 57.628906 49.347656 56.269531 C 49.3125 55.9375 49.242188 55.589844 49.207031 55.257812 C 49.136719 54.929688 49.066406 54.578125 49 54.25 C 48.894531 53.917969 48.824219 53.570312 48.703125 53.253906 C 48.5625 52.785156 48.476562 52.59375 48.335938 52.226562 C 48.058594 51.546875 47.742188 50.867188 47.378906 50.171875 C 47.011719 49.472656 46.59375 48.792969 46.15625 48.082031 C 45.269531 46.6875 44.257812 45.238281 43.179688 43.742188 C 42.132812 42.226562 41.035156 40.640625 40.078125 38.914062 C 39.589844 38.0625 39.152344 37.171875 38.753906 36.25 L 38.613281 35.898438 L 38.5625 35.777344 L 38.527344 35.707031 L 38.472656 35.550781 L 38.230469 34.871094 C 38.039062 34.367188 37.917969 33.894531 37.777344 33.410156 C 37.253906 31.492188 37.0625 29.503906 37.238281 27.625 C 37.339844 26.683594 37.515625 25.777344 37.792969 24.921875 C 37.863281 24.714844 37.933594 24.503906 38.019531 24.296875 L 38.140625 24 L 38.230469 23.789062 L 38.28125 23.667969 C 38.367188 23.492188 38.457031 23.335938 38.527344 23.179688 C 38.628906 22.972656 38.753906 22.78125 38.855469 22.570312 C 39.746094 21.140625 40.84375 20.113281 41.921875 19.417969 C 43.003906 18.71875 44.085938 18.355469 44.957031 18.195312 C 45.84375 18.039062 46.542969 18.128906 46.976562 18.179688 C 47.429688 18.265625 47.65625 18.335938 47.65625 18.335938 C 47.65625 18.335938 47.429688 18.40625 47.011719 18.546875 C 46.609375 18.703125 46.035156 18.945312 45.410156 19.382812 C 44.78125 19.816406 44.121094 20.410156 43.527344 21.230469 C 42.933594 22.011719 42.410156 23.023438 42.132812 24.105469 C 42.0625 24.382812 42.011719 24.679688 41.941406 24.976562 L 41.90625 25.113281 L 41.90625 25.132812 C 41.890625 25.203125 41.921875 25.0625 41.921875 25.078125 L 41.921875 25.167969 L 41.90625 25.394531 C 41.890625 25.53125 41.871094 25.6875 41.871094 25.847656 C 41.835938 26.457031 41.835938 27.082031 41.921875 27.726562 C 42.082031 29.015625 42.464844 30.375 43.019531 31.753906 C 43.160156 32.085938 43.335938 32.449219 43.472656 32.746094 L 43.597656 32.992188 L 43.753906 33.285156 L 43.824219 33.445312 L 43.859375 33.511719 L 43.875 33.53125 C 43.894531 33.566406 43.859375 33.496094 43.859375 33.511719 L 43.875 33.546875 L 44.015625 33.808594 C 44.398438 34.488281 44.816406 35.1875 45.269531 35.898438 C 46.175781 37.292969 47.203125 38.742188 48.285156 40.257812 C 49.328125 41.789062 50.425781 43.375 51.367188 45.117188 C 51.855469 45.972656 52.273438 46.878906 52.65625 47.800781 C 53.039062 48.726562 53.371094 49.683594 53.597656 50.660156 C 53.71875 51.113281 53.859375 51.738281 53.894531 52.105469 C 54 52.609375 54.015625 53.097656 54.070312 53.585938 C 54.085938 54.074219 54.105469 54.5625 54.105469 55.03125 C 54.085938 55.503906 54.085938 55.972656 54.015625 56.425781 C 53.808594 58.257812 53.320312 59.894531 52.691406 61.304688 C 52.046875 62.71875 51.296875 63.902344 50.515625 64.84375 C 49.675781 65.695312 48.929688 66.429688 48.230469 66.933594 Z M 67.625 29.332031 C 67.277344 29.296875 66.753906 29.242188 66.125 29.296875 C 65.5 29.367188 64.75 29.558594 63.984375 29.921875 C 63.214844 30.289062 62.414062 30.863281 61.753906 31.597656 C 61.683594 31.683594 61.597656 31.769531 61.527344 31.859375 C 61.4375 31.980469 61.351562 32.085938 61.265625 32.207031 C 61.144531 32.378906 60.96875 32.625 60.847656 32.867188 C 60.566406 33.339844 60.339844 33.84375 60.148438 34.382812 C 59.765625 35.464844 59.539062 36.703125 59.488281 37.992188 C 59.46875 38.304688 59.46875 38.652344 59.46875 38.949219 C 59.46875 39.089844 59.46875 39.28125 59.488281 39.453125 C 59.488281 39.542969 59.488281 39.664062 59.503906 39.699219 L 59.523438 39.960938 C 59.574219 40.640625 59.660156 41.320312 59.765625 42.035156 C 59.992188 43.445312 60.289062 44.890625 60.601562 46.390625 C 60.898438 47.886719 61.210938 49.4375 61.351562 51.023438 C 61.507812 52.59375 61.527344 54.214844 61.300781 55.78125 C 61.246094 56.164062 61.160156 56.617188 61.089844 56.933594 C 61.003906 57.332031 60.882812 57.699219 60.777344 58.0625 C 60.535156 58.796875 60.238281 59.476562 59.90625 60.121094 C 59.226562 61.390625 58.390625 62.472656 57.519531 63.328125 C 56.648438 64.199219 55.722656 64.84375 54.886719 65.347656 C 54.035156 65.835938 53.25 66.167969 52.585938 66.375 C 52.273438 66.496094 51.960938 66.566406 51.699219 66.621094 C 51.4375 66.691406 51.210938 66.722656 51.035156 66.742188 C 50.671875 66.792969 50.480469 66.8125 50.480469 66.8125 C 50.480469 66.8125 50.652344 66.722656 50.96875 66.550781 C 51.296875 66.394531 51.734375 66.113281 52.292969 65.75 C 52.847656 65.398438 53.457031 64.878906 54.121094 64.285156 C 54.765625 63.675781 55.429688 62.910156 56.039062 62.039062 C 56.648438 61.164062 57.207031 60.15625 57.605469 59.039062 C 57.710938 58.761719 57.78125 58.464844 57.882812 58.1875 C 57.972656 57.890625 58.042969 57.59375 58.109375 57.296875 C 58.164062 57 58.234375 56.6875 58.269531 56.390625 C 58.320312 56.007812 58.335938 55.765625 58.355469 55.433594 C 58.425781 54.144531 58.320312 52.785156 58.128906 51.390625 C 57.917969 49.996094 57.625 48.53125 57.308594 47.050781 C 57.011719 45.554688 56.699219 44.019531 56.527344 42.453125 C 56.4375 41.667969 56.386719 40.867188 56.386719 40.082031 L 56.386719 39.488281 C 56.386719 39.316406 56.402344 39.125 56.402344 38.914062 C 56.421875 38.496094 56.457031 38.113281 56.527344 37.710938 C 56.734375 36.160156 57.171875 34.664062 57.851562 33.339844 C 58.199219 32.695312 58.582031 32.085938 59.035156 31.542969 C 59.261719 31.265625 59.46875 31.039062 59.75 30.777344 C 59.855469 30.671875 59.976562 30.566406 60.082031 30.480469 C 60.21875 30.375 60.359375 30.253906 60.480469 30.148438 C 61.527344 29.367188 62.625 28.929688 63.617188 28.722656 C 64.609375 28.496094 65.5 28.53125 66.214844 28.652344 C 66.910156 28.757812 67.414062 29.015625 67.746094 29.175781 C 68.0625 29.367188 68.234375 29.46875 68.234375 29.46875 C 68.234375 29.46875 67.992188 29.402344 67.625 29.332031 Z M 67.625 29.332031 "/></g><path style=" stroke:none;fill-rule:nonzero;fill:#3d5919;fill-opacity:1;" d="M 95.886719 90.597656 C 98.519531 82.492188 87.976562 83.050781 87.976562 83.050781 C 87.976562 92.667969 84.960938 98.125 84.960938 98.125 C 84.960938 98.125 93.257812 98.699219 95.886719 90.597656 Z M 95.886719 90.597656 "/></g></svg>